<svg width="41" height="63" viewBox="0 0 41 63" fill="none" xmlns="http://www.w3.org/2000/svg">
<path fill-rule="evenodd" clip-rule="evenodd" d="M1.12 28.3863C-2.46041 17.3224 2.78887 5.7268 13.3645 1.3391C23.3089 -2.78686 35.9225 3.00888 39.6426 13.4136C42.3025 20.8526 41.1518 27.8462 35.3165 39.7028C32.1345 46.1681 22.4336 62.0651 21.1732 62.8801C20.1529 63.54 18.7181 61.6809 12.8782 52.1336C7.2073 42.8627 3.15997 34.688 1.12 28.3863ZM16.7853 11.725C12.8091 13.4226 9.94238 19.258 11.0678 23.3645C12.5723 28.854 15.5221 31.2462 20.7907 31.2504C28.6512 31.2566 33.0145 21.9892 28.3672 15.1592C26.008 11.6931 20.6104 10.0922 16.7853 11.725Z" fill="#775946"/>
</svg>
