<svg width="120" height="120" viewBox="0 0 120 120" fill="none" xmlns="http://www.w3.org/2000/svg">
<path fill-rule="evenodd" clip-rule="evenodd" d="M50.8322 0.71132C21.5127 5.81486 0 31.011 0 60.2474C0 79.7235 11.384 100.548 27.6846 110.893C47.261 123.316 74.2873 123 93.5189 110.126C123.356 90.1522 128.921 48.1955 105.394 20.6149C92.7706 5.81727 69.7479 -2.58226 50.8322 0.71132ZM50.0154 42.385C49.5745 42.8258 49.2142 47.9739 49.2142 53.8253C49.2142 60.1138 48.7229 64.4623 48.0129 64.4623C47.3186 64.4623 46.8117 60.6484 46.8117 55.4305V46.3988H39.0602H31.3087L29.9742 50.9146C29.2402 53.399 28.3297 58.818 27.9513 62.957C27.1801 71.3962 28.1183 72.2549 32.8883 67.4728C34.6974 65.6593 37.2632 64.4623 39.3401 64.4623C41.4663 64.4623 43.8711 65.6171 45.6105 67.4728C47.7967 69.8054 49.6298 70.4834 53.7548 70.4834C57.6804 70.4834 60.0144 69.6935 62.6463 67.4728C67.2169 63.6169 71.3395 63.653 75.2579 67.5812C77.6988 70.0282 78.5937 70.3534 79.4141 69.0865C79.9895 68.199 80.3211 66.389 80.1529 65.0644C79.9175 63.2195 78.7907 62.568 75.3408 62.2826C71.5017 61.9635 70.8362 61.4854 70.8362 59.0432C70.8362 56.6191 71.5293 56.1049 75.3408 55.7051L79.8454 55.233L75.3408 55.0307C71.7527 54.8693 70.8362 54.3527 70.8362 52.4922C70.8362 50.6798 71.8452 50.0512 75.3408 49.6839L79.8454 49.2118L75.3408 49.0095C71.7047 48.8458 70.8362 48.3436 70.8362 46.3988C70.8362 44.5358 71.6374 43.9903 74.369 43.9903C76.3126 43.9903 78.2357 43.4484 78.6442 42.786C79.479 41.4313 51.3596 41.0375 50.0154 42.385ZM72.0374 46.3988C72.0374 47.1068 76.2417 47.603 82.2478 47.603C88.254 47.603 92.4582 47.1068 92.4582 46.3988C92.4582 45.6907 88.254 45.1945 82.2478 45.1945C76.2417 45.1945 72.0374 45.6907 72.0374 46.3988ZM33.1538 52.721C31.7027 58.1509 32.1015 58.5916 38.1028 58.2063C43.5744 57.8546 43.8243 57.6776 44.1846 53.9252C44.5582 50.0404 44.5222 50.0115 39.22 50.0115C34.6962 50.0115 33.7676 50.4257 33.1538 52.721ZM72.0374 52.4199C72.0374 53.1075 75.6411 53.6242 80.446 53.6242C85.2509 53.6242 88.8546 53.1075 88.8546 52.4199C88.8546 51.7323 85.2509 51.2157 80.446 51.2157C75.6411 51.2157 72.0374 51.7323 72.0374 52.4199ZM72.638 59.6453C73.0465 60.3077 75.7804 60.8496 78.715 60.8496C81.6496 60.8496 84.0497 60.3077 84.0497 59.6453C84.0497 58.983 81.3145 58.4411 77.9727 58.4411C74.2273 58.4411 72.1804 58.9035 72.638 59.6453ZM34.385 70.2775C33.2919 71.489 32.397 73.6253 32.397 75.0258C32.397 77.7666 36.5124 81.3215 39.6861 81.3215C42.3312 81.3215 45.6105 77.4836 45.6105 74.3888C45.6105 68.6987 38.2446 66.0013 34.385 70.2775ZM63.8691 69.52C61.3045 72.0911 62.1598 77.4776 65.4799 79.6585C71.5329 83.6349 77.8946 77.1212 73.9113 71.0265C71.8044 67.8028 66.3917 66.9911 63.8691 69.52ZM37.9923 72.5005C37.5575 72.9365 37.2019 74.0154 37.2019 74.8994C37.2019 76.6925 40.2987 77.0971 41.3221 75.4364C42.1402 74.1106 39.0782 71.4119 37.9923 72.5005ZM66.7809 73.5398C66.3725 74.6055 66.8493 75.6905 67.9052 76.0964C70.256 77.0007 71.3275 75.9133 70.4218 73.5458C69.5101 71.1638 67.6914 71.1602 66.7809 73.5398Z" fill="#38393E"/>
</svg>
