<svg width="120" height="120" viewBox="0 0 120 120" fill="none" xmlns="http://www.w3.org/2000/svg">
<path fill-rule="evenodd" clip-rule="evenodd" d="M45.1214 1.19765C36.5788 3.20407 25.0578 9.80055 18.1193 16.6597C-17.1091 51.4787 1.8306 110.918 50.7964 119.216C82.9754 124.669 114.645 101.039 119.394 68.0325C123.644 38.4918 105.165 10.4127 75.7866 1.77125C68.6663 -0.323137 52.8554 -0.618376 45.1214 1.19765ZM52.0828 25.6856C50.0119 26.5894 47.9493 27.9234 47.4992 28.6513C47.0504 29.3803 45.3248 29.9756 43.6653 29.9756C42.0071 29.9756 39.663 30.5034 38.4584 31.1493C35.3225 32.8304 30.9085 40.8043 31.8411 43.1047C32.491 44.7075 32.8038 44.5749 33.669 42.3275C34.243 40.8368 35.2719 39.6161 35.9554 39.6161C36.6377 39.6161 37.1973 38.5508 37.1973 37.2481C37.1973 34.456 41.3128 31.9218 44.4957 32.7557C45.7279 33.0786 47.4331 32.5002 48.2838 31.4723C50.5197 28.7718 56.9095 26.3604 61.8276 26.3604C64.1658 26.3604 66.0779 25.8182 66.0779 25.1554C66.0779 23.4032 56.4859 23.7672 52.0828 25.6856ZM74.28 34.4946C73.7156 39.4088 67.3077 42.3925 59.4594 41.396C47.1743 39.8366 37.1973 41.2369 37.1973 44.5219C37.1973 45.8631 46.7423 44.6436 48.7832 43.0409C49.5811 42.4142 51.4763 42.4829 53.374 43.2059C58.7133 45.2377 67.4822 44.6725 71.836 42.0141C75.8588 39.5582 78.2559 35.4068 77.2234 32.687C76.2342 30.0865 74.6771 31.0433 74.28 34.4946ZM30.8123 51.3654C30.5307 51.8631 29.5897 61.6674 28.7196 73.1528C27.0205 95.6103 27.1324 96.2164 32.9855 96.2164C38.7171 96.2164 38.8507 95.5295 37.2117 74.3868C36.3718 63.5473 35.1937 53.7297 34.5932 52.5704C33.4573 50.3736 31.6907 49.8109 30.8123 51.3654ZM73.1777 57.3907C73.0754 61.2493 72.937 61.4698 72.2282 58.897C71.653 56.811 70.4208 55.7699 68.2235 55.512C65.5436 55.1963 64.9876 55.6566 64.6603 58.4547C64.2187 62.2326 62.1946 62.9858 48.93 64.3053C43.0938 64.8861 40.8074 65.5959 40.8074 66.8263C40.8074 68.9062 38.533 68.9773 63.0695 66.1273C92.2257 62.7399 88.9417 61.4433 88.9417 76.3438V88.9716L66.0755 89.2982C34.6402 89.7489 35.0686 91.9336 66.676 92.3639C88.2401 92.6579 90.8971 92.4771 92.2473 90.6274C94.1077 88.0799 94.3147 65.8104 92.5096 62.4326C91.5638 60.6624 89.9718 60.1021 85.8912 60.1021C80.7239 60.1021 80.5182 59.9635 80.5182 56.4869C80.5182 53.273 80.1175 52.8717 76.9081 52.8717C73.5604 52.8717 73.2896 53.1995 73.1777 57.3907ZM60.0611 76.3703C60.0611 77.3741 61.1309 78.1779 62.4678 78.1779C63.8047 78.1779 64.8745 77.3741 64.8745 76.3703C64.8745 75.3665 63.8047 74.5627 62.4678 74.5627C61.1309 74.5627 60.0611 75.3665 60.0611 76.3703ZM67.2812 76.3703C67.2812 77.3741 68.351 78.1779 69.688 78.1779C71.0249 78.1779 72.0947 77.3741 72.0947 76.3703C72.0947 75.3665 71.0249 74.5627 69.688 74.5627C68.351 74.5627 67.2812 75.3665 67.2812 76.3703ZM75.7048 76.3703C75.7048 77.3741 76.7745 78.1779 78.1115 78.1779C79.4484 78.1779 80.5182 77.3741 80.5182 76.3703C80.5182 75.3665 79.4484 74.5627 78.1115 74.5627C76.7745 74.5627 75.7048 75.3665 75.7048 76.3703ZM60.0611 82.3956C60.0611 83.3994 61.1309 84.2032 62.4678 84.2032C63.8047 84.2032 64.8745 83.3994 64.8745 82.3956C64.8745 81.3918 63.8047 80.588 62.4678 80.588C61.1309 80.588 60.0611 81.3918 60.0611 82.3956ZM67.2812 82.3956C67.2812 83.3994 68.351 84.2032 69.688 84.2032C71.0249 84.2032 72.0947 83.3994 72.0947 82.3956C72.0947 81.3918 71.0249 80.588 69.688 80.588C68.351 80.588 67.2812 81.3918 67.2812 82.3956ZM75.7048 82.3956C75.7048 83.3994 76.7745 84.2032 78.1115 84.2032C79.4484 84.2032 80.5182 83.3994 80.5182 82.3956C80.5182 81.3918 79.4484 80.588 78.1115 80.588C76.7745 80.588 75.7048 81.3918 75.7048 82.3956Z" fill="#38393E"/>
</svg>
