<svg width="120" height="120" viewBox="0 0 120 120" fill="none" xmlns="http://www.w3.org/2000/svg">
<path fill-rule="evenodd" clip-rule="evenodd" d="M44.7457 1.917C34.8262 4.58568 26.4946 9.3965 18.4942 17.0739C-0.834697 35.6227 -5.48419 63.7488 6.78044 87.9372C8.52911 91.3855 13.5291 97.7651 17.8917 102.117C41.8101 125.966 78.3928 125.961 102.054 102.105C125.956 78.0073 125.985 41.8548 102.124 17.9519C86.9068 2.70861 64.7779 -3.47553 44.7457 1.917ZM33.8661 29.0931C32.8411 30.1174 32.4259 37.5238 32.4259 54.7952C32.4259 82.7833 32.4403 82.8265 42.1125 82.8265H48.0282V87.0244C48.0282 89.3333 48.3691 91.2224 48.7855 91.2224C49.2008 91.2224 52.1724 89.3333 55.3889 87.0244C61.0814 82.9369 61.5338 82.8265 72.5491 82.8265C81.2336 82.8265 84.3 82.3887 85.7487 80.9422C88.5583 78.1332 88.5583 32.3471 85.7487 29.5381C84.1584 27.9489 80.055 27.6539 59.5847 27.6539C42.3022 27.6539 34.8911 28.0688 33.8661 29.0931ZM63.3305 39.5196C60.5893 42.2974 60.6757 44.0653 63.6306 45.6449C66.6898 47.2809 66.7042 48.9673 63.6618 49.459C61.8159 49.7577 61.571 50.2411 62.5528 51.642C63.5009 52.9949 63.9642 53.0693 64.4215 51.9418C64.7563 51.1178 65.7957 50.4426 66.7306 50.4426C69.2978 50.4426 68.7697 45.91 66.0309 44.4455C64.7107 43.7391 63.6306 42.5781 63.6306 41.8644C63.6306 41.1508 64.7107 40.8497 66.0309 41.1951C67.3511 41.5394 68.4313 41.3331 68.4313 40.7346C68.4313 40.1373 67.8588 39.6479 67.1603 39.6479C66.4618 39.6479 66.2229 39.1082 66.631 38.4485C67.8408 36.4935 65.6 37.2203 63.3305 39.5196ZM46.2916 41.9448C45.7935 42.7484 45.7167 43.7343 46.1187 44.1361C46.5208 44.5379 45.6759 46.1163 44.2405 47.6432C40.3747 51.7559 42.577 55.9167 49.214 57.0369C55.3997 58.0816 55.6085 61.6246 49.5188 62.2123C44.8801 62.6609 44.4625 64.4516 48.6283 66.0348C50.2786 66.6621 51.6288 67.7284 51.6288 68.4037C51.6288 69.0801 52.1688 69.6331 52.8289 69.6331C53.489 69.6331 54.0291 68.6375 54.0291 67.4202C54.0291 66.2028 55.1093 64.2297 56.4295 63.0363C57.7497 61.8429 58.8298 60.1398 58.8298 59.2522C58.8298 56.3736 54.1527 52.8414 50.341 52.8414C47.4761 52.8414 46.7404 52.3724 47.0501 50.7424C47.2901 49.477 48.7543 48.4923 50.7394 48.2644C54.4528 47.8351 55.0913 45.9676 51.9288 44.7826C50.773 44.3484 49.2356 43.2041 48.5119 42.2386C47.5097 40.9049 46.9781 40.8341 46.2916 41.9448ZM73.232 55.2942C72.2418 55.8291 70.4872 56.5583 69.3314 56.9146C66.757 57.7098 66.5926 61.627 69.0314 64.0642C72.6379 67.6684 70.6396 69.699 65.9517 67.1923C63.5885 65.9281 62.506 67.5977 64.7779 69.001C65.4092 69.3908 65.6217 70.5026 65.2496 71.4705C64.8787 72.4385 65.1716 73.2313 65.9025 73.2313C66.6334 73.2313 67.2311 72.6915 67.2311 72.0319C67.2311 71.3722 68.2452 70.8325 69.485 70.8325C72.9523 70.8325 75.2315 67.5041 73.4552 65.0345C69.7779 59.9263 70.1715 57.7589 74.3686 60.003C76.7365 61.2708 76.8553 61.1341 76.1028 58.0012C75.1127 53.8801 75.3803 54.1343 73.232 55.2942Z" fill="#38393E"/>
</svg>
