<svg width="171" height="171" viewBox="0 0 171 171" fill="none" xmlns="http://www.w3.org/2000/svg">
<style>
    
    path { fill: black; }

    
    @media (prefers-color-scheme: dark) {
      path { fill: white; }
    }
  </style>
<path fill-rule="evenodd" clip-rule="evenodd" d="M73.3059 0.826619C53.8379 3.63462 36.0809 13.0626 22.3709 27.8706C6.43385 45.0836 -1.09715 66.0156 0.128853 89.6946C0.863853 103.884 2.54085 110.383 8.78385 123.218C19.0169 144.26 35.8499 158.96 58.8059 166.903C68.0968 170.118 68.6799 170.19 85.3059 170.19C101.932 170.19 102.515 170.118 111.806 166.903C139.364 157.367 159.044 136.948 167.401 109.218C169.762 101.382 170.124 98.4066 170.201 86.2176C170.303 70.0446 168.892 63.1926 162.717 49.8736C157.613 38.8666 151.42 30.3526 142.786 22.4726C124.042 5.36562 98.0289 -2.73838 73.3059 0.826619ZM70.8809 8.74262C42.6459 14.6816 20.3399 34.1576 11.2859 60.7756C-3.14015 103.191 21.8279 149.196 65.8639 161.34C75.0349 163.869 95.9109 163.835 104.806 161.277C136.838 152.063 159.472 125.755 162.716 93.9676C166.54 56.4856 143.731 22.2126 107.306 10.7056C99.4099 8.21162 78.7089 7.09562 70.8809 8.74262ZM101.071 53.2596C89.2889 56.4316 81.4389 61.9616 77.8559 69.6106L75.4789 74.6846L77.3149 80.9516C79.9529 89.9626 80.1169 90.1646 85.9799 91.6516C88.9089 92.3946 91.8519 93.2046 92.5179 93.4526C93.2359 93.7196 95.2619 90.8076 97.4879 86.3106L101.245 78.7176H111.428H121.612L124.501 82.3186L127.39 85.9196L131.919 80.5686C138.563 72.7186 138.302 74.2466 135.27 60.9296C134.884 59.2366 132.773 57.7406 127.152 55.1796C120.831 52.2986 118.444 51.7286 112.931 51.7836C109.287 51.8196 103.95 52.4836 101.071 53.2596ZM39.9128 76.7586L32.8059 87.7996V99.2586V110.718H35.3309C37.3479 110.718 37.9789 110.102 38.4678 107.658C39.2248 103.873 43.8089 99.1416 47.3809 98.4586C53.7579 97.2396 60.2388 101.631 61.5198 108.038C62.0348 110.614 62.4019 110.849 65.0749 110.314C66.7149 109.986 71.3059 109.718 75.2789 109.718H82.5029L84.0339 105.82C85.9278 100.998 89.6559 98.4446 94.8059 98.4446C99.8959 98.4446 103.536 100.897 105.734 105.806L107.495 109.738L109.03 105.83C110.928 100.998 114.653 98.4446 119.806 98.4446C124.956 98.4446 128.684 100.998 130.578 105.82C133.055 112.125 134.806 110.866 134.806 102.781V95.8446L131.556 95.5306C128.77 95.2626 127.681 94.2536 123.929 88.4676L119.552 81.7176H111.898H104.245L100.533 89.2176L96.8219 96.7176H83.8139H70.8059V81.2176V65.7176H58.9129H47.0199L39.9128 76.7586ZM45.4719 80.6776C42.1919 85.6096 41.2419 87.7296 42.2979 87.7576C43.1269 87.7796 48.4179 87.8156 54.0559 87.8376L64.3059 87.8776V81.0476V74.2176L57.2299 73.9276L50.1529 73.6366L45.4719 80.6776ZM43.2609 103.173C38.3119 108.121 41.0808 117.741 47.8839 119.235C57.4488 121.336 63.7499 108.752 56.1339 102.761C52.4089 99.8316 46.4099 100.023 43.2609 103.173ZM89.4619 101.851C86.9439 103.314 84.8749 108.626 85.5159 111.979C86.2019 115.569 91.1819 119.718 94.8059 119.718C98.4549 119.718 103.473 115.513 104.296 111.764C105.036 108.396 102.785 103.312 99.8609 101.748C97.3829 100.421 91.8269 100.476 89.4619 101.851ZM114.462 101.851C111.944 103.314 109.875 108.626 110.516 111.979C111.202 115.569 116.182 119.718 119.806 119.718C123.455 119.718 128.473 115.513 129.296 111.764C130.036 108.396 127.785 103.312 124.861 101.748C122.383 100.421 116.827 100.476 114.462 101.851ZM47.9109 108.091C46.2449 110.099 47.6659 112.88 50.1729 112.521C52.6289 112.169 53.6269 108.853 51.6539 107.603C49.8008 106.428 49.2289 106.503 47.9109 108.091ZM92.8169 108.205C91.1549 110.207 92.2619 112.718 94.8059 112.718C95.9409 112.718 97.1299 112.037 97.4489 111.205C98.0238 109.708 96.2629 106.718 94.8059 106.718C94.3909 106.718 93.4949 107.387 92.8169 108.205ZM117.817 108.205C116.155 110.207 117.262 112.718 119.806 112.718C120.941 112.718 122.13 112.037 122.449 111.205C123.024 109.708 121.263 106.718 119.806 106.718C119.391 106.718 118.495 107.387 117.817 108.205Z" fill="black"/>
</svg>
