<svg width="133" height="133" viewBox="0 0 133 133" fill="none" xmlns="http://www.w3.org/2000/svg">
<path fill-rule="evenodd" clip-rule="evenodd" d="M49.459 2.20848C26.2495 8.43718 6.5287 28.3317 1.35917 50.731C-0.703564 59.6697 -0.372457 75.9349 2.04008 84.1301C7.39786 102.333 21.4552 119.173 37.5445 126.664C78.1638 145.572 125.548 120.251 132.266 76.0455C139.29 29.8359 94.6924 -9.93181 49.459 2.20848ZM26.6127 61.6109C26.6127 86.7522 26.9732 92.8676 28.5539 94.5863C29.6207 95.7468 31.7235 98.0464 33.2268 99.6945C37.387 104.26 44.411 103.791 48.1853 98.6953L51.1466 94.6983H65.5818C74.3147 94.6983 80.0169 95.2245 80.0169 96.0306C80.0169 96.7634 81.2185 98.562 82.6871 100.028C86.6457 103.978 92.89 103.485 97.1984 98.8818C99.1597 96.7874 102.105 94.6476 103.742 94.1293C106.552 93.2393 106.719 92.4599 106.719 80.2623V67.3373L98.9954 59.0342C91.3319 50.795 91.2171 50.731 83.9755 50.751C79.9622 50.763 75.7873 51.3346 74.6979 52.022C73.4923 52.7828 72.4215 56.2975 71.9649 60.9954C71.2453 68.3845 71.1385 68.5684 69.4869 65.2602C68.1745 62.6301 68.1038 60.5663 69.1919 56.6319C70.5657 51.669 70.4255 51.2586 65.7286 46.4582C60.531 41.1461 49.7407 36.6362 45.1173 37.8419C43.375 38.2976 42.6513 37.9912 43.0679 36.9772C45.7848 30.3715 46.2027 30.7459 36.1013 30.7459H26.6127V61.6109ZM29.2829 38.0738C29.2829 41.8936 31.3991 42.3106 35.6607 39.3302C39.9237 36.3524 39.3242 34.7429 33.9558 34.7429C29.861 34.7429 29.2829 35.1559 29.2829 38.0738ZM40.2001 43.2073C34.0439 44.8514 32.7929 46.2384 31.3363 53.0466C30.63 56.3442 31.088 58.3054 33.2762 61.3737C36.2215 65.5013 38.6286 66.5952 38.6286 63.8066C38.6286 62.9379 39.7301 60.99 41.0759 59.4765C43.5165 56.7345 47.9744 46.1025 47.9744 43.0261C47.9744 41.1555 47.8756 41.1581 40.2001 43.2073ZM49.9196 51.3905C47.9744 57.1023 47.7795 59.0635 49.0358 60.3172C49.921 61.2005 50.6446 63.9798 50.6446 66.4939C50.6446 71.0132 50.6993 71.0559 55.5431 70.2711C61.3121 69.3372 61.7393 68.7776 64.0651 59.1021L65.8434 51.7063L61.5604 47.8878C55.1038 42.1307 52.8422 42.8116 49.9196 51.3905ZM76.0116 68.0514V80.0425H53.2734C29.2989 80.0425 27.6314 80.4862 29.8543 86.2685C30.61 88.2351 30.9491 88.1565 32.7435 85.6024C35.9611 81.0178 44.1253 81.5907 48.4377 86.7042C51.7901 90.6812 51.8796 90.7012 65.9115 90.7012C76.8367 90.7012 80.0169 90.2975 80.0169 88.9092C80.0169 85.7489 84.7579 82.7072 89.6831 82.7072C93.3586 82.7072 95.2465 83.6332 97.8366 86.7042C99.6897 88.9026 101.58 90.7012 102.037 90.7012C102.493 90.7012 102.683 88.1538 102.456 85.0388C102.088 79.9399 101.672 79.3337 98.2959 78.9473C93.6363 78.4144 94.2491 75.5365 99.145 74.9583C101.108 74.7265 102.714 73.9764 102.714 73.2929C102.714 72.608 97.671 72.0485 91.5082 72.0485C78.9061 72.0485 78.6818 71.8713 78.6818 61.9467C78.6818 58.7091 78.081 56.0604 77.3467 56.0604C76.555 56.0604 76.0116 60.9461 76.0116 68.0514ZM82.9448 61.7228L83.3547 67.3853L92.7004 67.7823L102.046 68.1807L96.0943 62.1199C91.7872 57.7365 89.0903 56.0604 86.3373 56.0604C82.6885 56.0604 82.5496 56.2895 82.9448 61.7228ZM42.634 69.3838C42.634 74.4174 43.1239 76.0455 44.6366 76.0455C46.1493 76.0455 46.6393 74.4174 46.6393 69.3838C46.6393 64.3502 46.1493 62.7221 44.6366 62.7221C43.1239 62.7221 42.634 64.3502 42.634 69.3838ZM64.9636 71.0799C64.4856 72.3256 61.3401 73.6646 57.0731 74.44L49.977 75.7284L59.6566 75.8869C69.6832 76.0508 70.559 75.5592 67.5484 71.4502C65.9956 69.3318 65.6552 69.2825 64.9636 71.0799ZM35.9584 73.3808C35.9584 74.8464 36.5592 76.0455 37.2935 76.0455C38.0279 76.0455 38.6286 74.8464 38.6286 73.3808C38.6286 71.9152 38.0279 70.7161 37.2935 70.7161C36.5592 70.7161 35.9584 71.9152 35.9584 73.3808ZM36.2255 88.303C34.0119 90.512 34.2175 95.3684 36.6086 97.3483C41.6513 101.525 49.475 93.7177 45.2895 88.6854C43.3055 86.2992 38.4391 86.094 36.2255 88.303ZM85.6244 88.303C83.5643 90.3588 83.5643 95.0407 85.6244 97.0965C87.9955 99.4627 91.3039 99.0417 94.0409 96.0253C98.9567 90.604 90.8099 83.1282 85.6244 88.303ZM37.8009 91.3035C36.8703 93.7216 38.2214 96.0306 40.5672 96.0306C42.5912 96.0306 44.3589 92.4093 43.2267 90.5813C42.0599 88.6961 38.6273 89.1544 37.8009 91.3035ZM86.6924 91.955C86.6924 95.3138 88.9822 96.6728 91.344 94.7156C93.7752 92.7024 92.4508 89.3689 89.2198 89.3689C87.6083 89.3689 86.6924 90.3055 86.6924 91.955Z" fill="#38393E"/>
</svg>
