<svg width="100" height="101" viewBox="0 0 100 101" fill="none" xmlns="http://www.w3.org/2000/svg">
<path fill-rule="evenodd" clip-rule="evenodd" d="M37.2825 1.59829C29.0175 3.82329 22.0755 7.83429 15.4095 14.2353C-0.695477 29.7003 -4.56948 53.1503 5.64952 73.3173C7.10652 76.1923 11.2725 81.5113 14.9075 85.1393C34.8365 105.023 65.3175 105.019 85.0325 85.1293C104.948 65.0383 104.972 34.8963 85.0905 14.9673C72.4115 2.25829 53.9735 -2.89771 37.2825 1.59829ZM28.2175 24.2563C27.3635 25.1103 27.0175 31.2853 27.0175 45.6853C27.0175 69.0203 27.0295 69.0563 35.0885 69.0563H40.0175V72.5563C40.0175 74.4813 40.3015 76.0563 40.6485 76.0563C40.9945 76.0563 43.4705 74.4813 46.1505 72.5563C50.8935 69.1483 51.2705 69.0563 60.4485 69.0563C67.6845 69.0563 70.2395 68.6913 71.4465 67.4853C73.7875 65.1433 73.7875 26.9693 71.4465 24.6273C70.1215 23.3023 66.7025 23.0563 49.6465 23.0563C35.2465 23.0563 29.0715 23.4023 28.2175 24.2563ZM52.7675 32.9493C50.4835 35.2653 50.5555 36.7393 53.0175 38.0563C55.5665 39.4203 55.5785 40.8263 53.0435 41.2363C51.5055 41.4853 51.3015 41.8883 52.1195 43.0563C52.9095 44.1843 53.2955 44.2463 53.6765 43.3063C53.9555 42.6193 54.8215 42.0563 55.6005 42.0563C57.7395 42.0563 57.2995 38.2773 55.0175 37.0563C53.9175 36.4673 53.0175 35.4993 53.0175 34.9043C53.0175 34.3093 53.9175 34.0583 55.0175 34.3463C56.1175 34.6333 57.0175 34.4613 57.0175 33.9623C57.0175 33.4643 56.5405 33.0563 55.9585 33.0563C55.3765 33.0563 55.1775 32.6063 55.5175 32.0563C56.5255 30.4263 54.6585 31.0323 52.7675 32.9493ZM38.5705 34.9713C38.1555 35.6413 38.0915 36.4633 38.4265 36.7983C38.7615 37.1333 38.0575 38.4493 36.8615 39.7223C33.6405 43.1513 35.4755 46.6203 41.0055 47.5543C46.1595 48.4253 46.3335 51.3793 41.2595 51.8693C37.3945 52.2433 37.0465 53.7363 40.5175 55.0563C41.8925 55.5793 43.0175 56.4683 43.0175 57.0313C43.0175 57.5953 43.4675 58.0563 44.0175 58.0563C44.5675 58.0563 45.0175 57.2263 45.0175 56.2113C45.0175 55.1963 45.9175 53.5513 47.0175 52.5563C48.1175 51.5613 49.0175 50.1413 49.0175 49.4013C49.0175 47.0013 45.1205 44.0563 41.9445 44.0563C39.5575 44.0563 38.9445 43.6653 39.2025 42.3063C39.4025 41.2513 40.6225 40.4303 42.2765 40.2403C45.3705 39.8823 45.9025 38.3253 43.2675 37.3373C42.3045 36.9753 41.0235 36.0213 40.4205 35.2163C39.5855 34.1043 39.1425 34.0453 38.5705 34.9713ZM61.0175 46.1013C60.1925 46.5473 58.7305 47.1553 57.7675 47.4523C55.6225 48.1153 55.4855 51.3813 57.5175 53.4133C60.5225 56.4183 58.8575 58.1113 54.9515 56.0213C52.9825 54.9673 52.0805 56.3593 53.9735 57.5293C54.4995 57.8543 54.6765 58.7813 54.3665 59.5883C54.0575 60.3953 54.3015 61.0563 54.9105 61.0563C55.5195 61.0563 56.0175 60.6063 56.0175 60.0563C56.0175 59.5063 56.8625 59.0563 57.8955 59.0563C60.7845 59.0563 62.6835 56.2813 61.2035 54.2223C58.1395 49.9633 58.4675 48.1563 61.9645 50.0273C63.9375 51.0843 64.0365 50.9703 63.4095 48.3583C62.5845 44.9223 62.8075 45.1343 61.0175 46.1013Z" fill="#33363B"/>
</svg>
