<svg width="100" height="100" viewBox="0 0 100 100" fill="none" xmlns="http://www.w3.org/2000/svg">
<path fill-rule="evenodd" clip-rule="evenodd" d="M37.8125 1.43456C29.4257 3.46832 21.6526 7.87946 15.0541 14.3503C-10.0117 38.9357 -2.7736 79.8092 29.3211 94.9171C54.7107 106.868 85.56 94.3016 96.3549 67.6106C97.9161 63.7503 98.6484 59.364 98.9941 51.8016C99.4185 42.5073 99.1973 40.5452 97.0144 34.2706C88.3277 9.29971 63.0935 -4.69563 37.8125 1.43456ZM46.9884 22.8339C46.6178 23.4335 44.5784 23.9235 42.4553 23.9235C39.4185 23.9235 38.4561 24.3657 37.9371 26.0001C37.5744 27.1425 35.9753 28.5309 34.3833 29.0856C32.3349 29.7987 31.488 30.7549 31.488 32.3524C31.488 33.5944 30.5356 35.8203 29.3719 37.2994C27.718 39.4018 27.469 40.4635 28.2321 42.1647C28.8678 43.5809 28.8698 45.3179 28.2381 47.1385C27.4361 49.4482 27.6354 50.3286 29.3769 52.1831C30.5386 53.4181 31.488 55.4021 31.488 56.5923C31.488 58.1231 32.5072 59.1818 34.9751 60.2126C36.8929 61.0133 38.4621 62.3161 38.4621 63.1069C38.4621 64.8837 41.1192 65.9932 43.5382 65.2263C44.5325 64.9106 46.4982 65.4076 47.907 66.3308C50.316 67.9094 50.583 67.9054 52.3953 66.2651C53.6765 65.1068 55.1471 64.7293 56.781 65.1386C59.1412 65.7313 62.3732 63.8001 62.3732 61.7962C62.3732 61.341 63.7182 60.5004 65.3621 59.9277C67.812 59.0742 68.351 58.3322 68.351 55.8154C68.351 54.0396 68.9657 52.5088 69.8076 52.1851C71.85 51.4013 72.643 48.2689 71.3907 45.9294C70.6325 44.5132 70.6654 43.2293 71.5102 41.3768C72.5344 39.1289 72.4149 38.6081 70.5807 37.3233C69.3453 36.4588 68.347 34.5166 68.1637 32.6253C67.9246 30.1463 67.3298 29.3266 65.5863 29.0796C64.3399 28.9033 62.6372 27.7152 61.8013 26.4413C60.822 24.9464 58.9739 23.9394 56.5957 23.6058C54.5672 23.3209 51.7278 22.7851 50.2851 22.4156C48.7419 22.0202 47.3849 22.1925 46.9884 22.8339ZM42.4473 31.6443C35.2859 35.2198 32.5062 46.3666 37.2058 52.6592C40.7825 57.4488 44.147 59.2097 49.6953 59.1977C58.7875 59.1788 64.3658 53.3404 64.3658 43.8429C64.3658 38.9815 64.05 38.2854 60.014 34.2497C56.0627 30.3007 55.2128 29.8993 50.7982 29.9013C48.1232 29.9013 44.3652 30.6861 42.4473 31.6443ZM48.2796 37.623C46.4235 41.3639 45.3106 42.4535 42.9454 42.8519C40.1847 43.317 39.9336 43.7064 39.6577 47.9582L39.3598 52.5606L48.0375 52.4341L56.7152 52.3086L57.8729 48.8715C58.5106 46.9802 58.8344 44.4036 58.5933 43.1447C58.2386 41.2862 57.5123 40.855 54.7396 40.855C51.397 40.855 51.3372 40.7823 51.9559 37.4836C52.9323 32.2807 50.8919 32.3584 48.2796 37.623ZM31.6275 67.7112C29.5273 71.4471 29.4934 71.8246 31.0018 74.7418C33.2395 79.0673 37.9321 78.644 41.17 73.8235C43.9756 69.6484 44.0135 68.7421 41.3852 68.7421C38.487 68.7421 35.4732 66.9473 35.4732 65.2213C35.4732 62.6427 33.907 63.6566 31.6275 67.7112ZM63.0736 66.283C61.8641 67.9453 60.3238 68.7421 58.3213 68.7421H55.3583L57.3838 72.71C62.2517 82.2484 72.2176 77.4219 67.814 67.6594C66.8466 65.5161 65.7875 63.7762 65.4597 63.7931C65.132 63.811 64.058 64.9315 63.0736 66.283Z" fill="#33363B"/>
</svg>
