<svg width="100" height="100" viewBox="0 0 100 100" fill="none" xmlns="http://www.w3.org/2000/svg">
<path fill-rule="evenodd" clip-rule="evenodd" d="M37.045 1.65091C19.661 6.30706 4.89003 21.1789 1.01803 37.9231C-0.526972 44.605 -0.278972 56.7638 1.52803 62.89C5.54103 76.4969 16.07 89.0859 28.121 94.6852C58.545 108.82 94.036 89.8917 99.068 56.8464C104.329 22.3033 70.925 -7.42435 37.045 1.65091ZM19.933 46.0561C19.933 64.85 20.203 69.4215 21.387 70.7063C22.186 71.5738 23.761 73.2929 24.887 74.5249C28.003 77.9381 33.264 77.5875 36.091 73.7779L38.309 70.79H49.121C55.662 70.79 59.933 71.1834 59.933 71.786C59.933 72.3337 60.833 73.6783 61.933 74.7739C64.898 77.7269 69.575 77.3584 72.802 73.9173C74.271 72.3517 76.477 70.7521 77.703 70.3647C79.808 69.6994 79.933 69.1168 79.933 59.9987V50.3368L74.148 44.1299C68.408 37.9709 68.322 37.9231 62.898 37.938C59.892 37.947 56.765 38.3742 55.949 38.8882C55.046 39.4569 54.244 42.0842 53.902 45.596C53.363 51.1196 53.283 51.2571 52.046 48.7841C51.063 46.818 51.01 45.2753 51.825 42.3342C52.854 38.6242 52.749 38.3175 49.231 34.729C45.338 30.7581 37.256 27.3867 33.793 28.2881C32.488 28.6287 31.946 28.3996 32.258 27.6417C34.293 22.7037 34.606 22.9835 27.04 22.9835H19.933V46.0561ZM21.933 28.4614C21.933 31.3168 23.518 31.6285 26.71 29.4006C29.903 27.1746 29.454 25.9714 25.433 25.9714C22.366 25.9714 21.933 26.2802 21.933 28.4614ZM30.11 32.2988C25.499 33.5279 24.562 34.5647 23.471 39.6541C22.942 42.1191 23.285 43.5851 24.924 45.8788C27.13 48.9644 28.933 49.782 28.933 47.6975C28.933 47.0481 29.758 45.592 30.766 44.4606C32.594 42.4109 35.933 34.4631 35.933 32.1634C35.933 30.765 35.859 30.767 30.11 32.2988ZM37.39 38.4161C35.933 42.6858 35.787 44.1518 36.728 45.0891C37.391 45.7494 37.933 47.827 37.933 49.7064C37.933 53.0847 37.974 53.1166 41.602 52.5299C45.923 51.8317 46.243 51.4134 47.985 44.1807L49.317 38.6521L46.109 35.7977C41.273 31.4941 39.579 32.003 37.39 38.4161ZM56.933 50.8706V59.8344H39.902C21.945 59.8344 20.696 60.166 22.361 64.4885C22.927 65.9585 23.181 65.8998 24.525 63.9905C26.935 60.5634 33.05 60.9917 36.28 64.8142C38.791 67.7871 38.858 67.8021 49.368 67.8021C57.551 67.8021 59.933 67.5003 59.933 66.4625C59.933 64.1001 63.484 61.8263 67.173 61.8263C69.926 61.8263 71.34 62.5185 73.28 64.8142C74.668 66.4575 76.084 67.8021 76.426 67.8021C76.768 67.8021 76.91 65.8978 76.74 63.5692C76.464 59.7577 76.153 59.3045 73.624 59.0157C70.134 58.6173 70.593 56.466 74.26 56.0337C75.73 55.8604 76.933 55.2997 76.933 54.7888C76.933 54.2768 73.156 53.8585 68.54 53.8585C59.101 53.8585 58.933 53.7261 58.933 46.3071C58.933 43.8869 58.483 41.9069 57.933 41.9069C57.34 41.9069 56.933 45.5591 56.933 50.8706ZM62.126 46.1398L62.433 50.3727L69.433 50.6695L76.433 50.9673L71.975 46.4366C68.749 43.1599 66.729 41.9069 64.667 41.9069C61.934 41.9069 61.83 42.0782 62.126 46.1398ZM31.933 51.8666C31.933 55.6294 32.3 56.8464 33.433 56.8464C34.566 56.8464 34.933 55.6294 34.933 51.8666C34.933 48.1038 34.566 46.8868 33.433 46.8868C32.3 46.8868 31.933 48.1038 31.933 51.8666ZM48.658 53.1345C48.3 54.0657 45.944 55.0667 42.748 55.6463L37.433 56.6094L44.683 56.7279C52.193 56.8504 52.849 56.4829 50.594 53.4114C49.431 51.8278 49.176 51.7909 48.658 53.1345ZM26.933 54.8545C26.933 55.9501 27.383 56.8464 27.933 56.8464C28.483 56.8464 28.933 55.9501 28.933 54.8545C28.933 53.7589 28.483 52.8626 27.933 52.8626C27.383 52.8626 26.933 53.7589 26.933 54.8545ZM27.133 66.0093C25.475 67.6607 25.629 71.291 27.42 72.771C31.197 75.8933 37.057 70.057 33.922 66.2952C32.436 64.5114 28.791 64.358 27.133 66.0093ZM64.133 66.0093C62.59 67.5461 62.59 71.046 64.133 72.5827C65.909 74.3516 68.387 74.0368 70.437 71.782C74.119 67.7294 68.017 62.141 64.133 66.0093ZM28.313 68.2523C27.616 70.06 28.628 71.786 30.385 71.786C31.901 71.786 33.225 69.0789 32.377 67.7125C31.503 66.3032 28.932 66.6458 28.313 68.2523ZM64.933 68.7393C64.933 71.2501 66.648 72.266 68.417 70.8029C70.238 69.298 69.246 66.8061 66.826 66.8061C65.619 66.8061 64.933 67.5063 64.933 68.7393Z" fill="#33363B"/>
</svg>
