<svg width="100" height="100" viewBox="0 0 100 100" fill="none" xmlns="http://www.w3.org/2000/svg">
<path fill-rule="evenodd" clip-rule="evenodd" d="M42.317 0.588558C17.909 4.81131 0 25.6591 0 49.8497C0 65.9645 9.477 83.1953 23.047 91.7544C39.344 102.033 61.843 101.772 77.853 91.1197C102.692 74.5934 107.325 39.8777 87.739 17.0571C77.23 4.81331 58.064 -2.1366 42.317 0.588558ZM41.637 35.0701C41.27 35.4348 40.97 39.6944 40.97 44.5359C40.97 49.7391 40.561 53.3371 39.97 53.3371C39.392 53.3371 38.97 50.1815 38.97 45.8641V38.3911H32.517H26.064L24.953 42.1276C24.342 44.1832 23.584 48.667 23.269 52.0916C22.627 59.0744 23.408 59.7849 27.379 55.8281C28.885 54.3276 31.021 53.3371 32.75 53.3371C34.52 53.3371 36.522 54.2927 37.97 55.8281C39.79 57.7582 41.316 58.3191 44.75 58.3191C48.018 58.3191 49.961 57.6655 52.152 55.8281C55.957 52.6377 59.389 52.6675 62.651 55.9178C64.683 57.9425 65.428 58.2115 66.111 57.1633C66.59 56.429 66.866 54.9314 66.726 53.8353C66.53 52.3088 65.592 51.7698 62.72 51.5336C59.524 51.2696 58.97 50.874 58.97 48.8533C58.97 46.8476 59.547 46.4221 62.72 46.0913L66.47 45.7007L62.72 45.5333C59.733 45.3998 58.97 44.9723 58.97 43.4329C58.97 41.9333 59.81 41.4132 62.72 41.1093L66.47 40.7187L62.72 40.5513C59.693 40.4158 58.97 40.0003 58.97 38.3911C58.97 36.8497 59.637 36.3983 61.911 36.3983C63.529 36.3983 65.13 35.9499 65.47 35.4019C66.165 34.2809 42.756 33.9551 41.637 35.0701ZM59.97 38.3911C59.97 38.977 63.47 39.3875 68.47 39.3875C73.47 39.3875 76.97 38.977 76.97 38.3911C76.97 37.8052 73.47 37.3947 68.47 37.3947C63.47 37.3947 59.97 37.8052 59.97 38.3911ZM27.6 43.6222C26.392 48.115 26.724 48.4797 31.72 48.1608C36.275 47.8699 36.483 47.7234 36.783 44.6186C37.094 41.4042 37.064 41.3803 32.65 41.3803C28.884 41.3803 28.111 41.7231 27.6 43.6222ZM59.97 43.3731C59.97 43.942 62.97 44.3695 66.97 44.3695C70.97 44.3695 73.97 43.942 73.97 43.3731C73.97 42.8042 70.97 42.3767 66.97 42.3767C62.97 42.3767 59.97 42.8042 59.97 43.3731ZM60.47 49.3515C60.81 49.8995 63.086 50.3479 65.529 50.3479C67.972 50.3479 69.97 49.8995 69.97 49.3515C69.97 48.8035 67.693 48.3551 64.911 48.3551C61.793 48.3551 60.089 48.7377 60.47 49.3515ZM28.625 58.1488C27.715 59.1511 26.97 60.9188 26.97 62.0776C26.97 64.3454 30.396 67.2868 33.038 67.2868C35.24 67.2868 37.97 64.1112 37.97 61.5505C37.97 56.8425 31.838 54.6105 28.625 58.1488ZM53.17 57.522C51.035 59.6493 51.747 64.1063 54.511 65.9107C59.55 69.2009 64.846 63.8113 61.53 58.7685C59.776 56.1012 55.27 55.4296 53.17 57.522ZM31.628 59.9881C31.266 60.3488 30.97 61.2416 30.97 61.973C30.97 63.4566 33.548 63.7914 34.4 62.4174C35.081 61.3203 32.532 59.0874 31.628 59.9881ZM55.594 60.848C55.254 61.7298 55.651 62.6276 56.53 62.9634C58.487 63.7117 59.379 62.8119 58.625 60.853C57.866 58.8821 56.352 58.8791 55.594 60.848Z" fill="#33363B"/>
</svg>
