<svg width="132" height="133" viewBox="0 0 132 133" fill="none" xmlns="http://www.w3.org/2000/svg">
<path fill-rule="evenodd" clip-rule="evenodd" d="M50.3297 1.91852C39.1666 4.6384 28.8203 10.5377 20.0375 19.1915C-13.3259 52.0712 -3.69175 106.734 39.0273 126.938C72.8218 142.921 113.883 126.115 128.252 90.4199C130.33 85.2572 131.304 79.3912 131.764 69.2775C132.329 56.8476 132.035 54.2236 129.129 45.8322C117.567 12.4371 83.9796 -6.27975 50.3297 1.91852ZM62.5431 30.5372C62.0498 31.3391 59.3353 31.9944 56.5094 31.9944C52.4674 31.9944 51.1864 32.5858 50.4955 34.7715C50.0128 36.2993 47.8844 38.1561 45.7653 38.898C43.0388 39.8517 41.9116 41.1304 41.9116 43.2668C41.9116 44.9278 40.6439 47.9048 39.095 49.8827C36.8936 52.6945 36.5621 54.1144 37.5779 56.3894C38.424 58.2835 38.4266 60.6064 37.5859 63.0413C36.5184 66.1301 36.7836 67.3076 39.1016 69.7877C40.6478 71.4393 41.9116 74.0926 41.9116 75.6843C41.9116 77.7316 43.2682 79.1474 46.553 80.526C49.1057 81.5969 51.1943 83.3391 51.1943 84.3967C51.1943 86.773 54.7311 88.2568 57.9508 87.2312C59.2743 86.8089 61.8907 87.4736 63.7658 88.7083C66.9723 90.8195 67.3277 90.8141 69.7399 88.6204C71.4453 87.0713 73.4026 86.5665 75.5774 87.1139C78.7189 87.9065 83.0208 85.3238 83.0208 82.6439C83.0208 82.0351 84.8111 80.911 86.9991 80.1451C90.26 79.0036 90.9774 78.0113 90.9774 74.6454C90.9774 72.2705 91.7956 70.2232 92.9162 69.7903C95.6347 68.7421 96.6903 64.553 95.0234 61.4242C94.0142 59.5302 94.058 57.8133 95.1825 55.3358C96.5457 52.3296 96.3866 51.6329 93.9453 49.9147C92.3009 48.7585 90.9721 46.1612 90.7281 43.6318C90.4099 40.3165 89.6182 39.2203 87.2975 38.89C85.6385 38.6542 83.3722 37.0652 82.2596 35.3616C80.9561 33.3623 78.4962 32.0157 75.3307 31.5695C72.6308 31.1885 68.8514 30.4719 66.9312 29.9778C64.8771 29.449 63.0709 29.6794 62.5431 30.5372ZM56.4988 42.3198C46.9667 47.1016 43.2669 62.009 49.5221 70.4244C54.2828 76.8298 58.7611 79.1847 66.1462 79.1687C78.2482 79.1434 85.673 71.3354 85.673 58.6338C85.673 52.1324 85.2527 51.2014 79.8806 45.8042C74.6213 40.523 73.4901 39.9862 67.6142 39.9889C64.0536 39.9889 59.0515 41.0385 56.4988 42.3198ZM64.2618 50.3156C61.7912 55.3185 60.31 56.7757 57.1618 57.3085C53.4872 57.9305 53.153 58.4513 52.7857 64.1375L52.3892 70.2925L63.9395 70.1233L75.4899 69.9555L77.0308 65.3589C77.8795 62.8295 78.3105 59.3837 77.9896 57.7001C77.5175 55.2146 76.5508 54.6379 72.8602 54.6379C68.4111 54.6379 68.3316 54.5406 69.1551 50.1292C70.4547 43.1709 67.7388 43.2748 64.2618 50.3156ZM42.0973 90.5544C39.3018 95.5506 39.2568 96.0555 41.2645 99.9568C44.2429 105.742 50.4888 105.175 54.7987 98.7287C58.533 93.1451 58.5834 91.933 55.0851 91.933C51.2275 91.933 47.216 89.5328 47.216 87.2245C47.216 83.776 45.1314 85.132 42.0973 90.5544ZM83.9531 88.6444C82.3432 90.8674 80.293 91.933 77.6276 91.933H73.6837L76.3797 97.2396C82.859 109.996 96.124 103.541 90.2627 90.4852C88.975 87.6188 87.5654 85.2918 87.1291 85.3144C86.6928 85.3384 85.2633 86.8369 83.9531 88.6444Z" fill="#38393E"/>
</svg>
