<svg width="120" height="120" viewBox="0 0 120 120" fill="none" xmlns="http://www.w3.org/2000/svg">
<path fill-rule="evenodd" clip-rule="evenodd" d="M44.6247 1.99261C23.6838 7.61249 5.89056 25.5624 1.22632 45.7723C-0.634794 53.8373 -0.336052 68.5127 1.84067 75.9069C6.67476 92.3301 19.3581 107.525 33.8748 114.283C70.5237 131.343 113.276 108.497 119.338 68.6125C125.675 26.9196 85.4368 -8.96103 44.6247 1.99261ZM24.0115 55.5888C24.0115 78.2726 24.3367 83.7903 25.763 85.3411C26.7254 86.3881 28.6227 88.4629 29.9791 89.95C33.7326 94.0696 40.0701 93.6465 43.4755 89.0484L46.1473 85.442H59.1715C67.0508 85.442 72.1957 85.9169 72.1957 86.6441C72.1957 87.3053 73.2799 88.9282 74.6049 90.2505C78.1766 93.8148 83.8105 93.37 87.6978 89.2167C89.4674 87.327 92.1247 85.3964 93.6016 84.9287C96.1373 84.1257 96.2878 83.4225 96.2878 72.4172V60.7555L89.3192 53.2639C82.4048 45.83 82.3012 45.7723 75.7674 45.7904C72.1463 45.8012 68.3795 46.3169 67.3966 46.9372C66.3088 47.6236 65.3427 50.7948 64.9307 55.0334C64.2815 61.7003 64.1851 61.8662 62.695 58.8814C61.5109 56.5084 61.447 54.6463 62.4288 51.0965C63.6683 46.6186 63.5418 46.2484 59.304 41.9172C54.6145 37.1243 44.8789 33.0552 40.7073 34.1431C39.1353 34.5542 38.4824 34.2777 38.8582 33.3629C41.3096 27.4029 41.6866 27.7407 32.5726 27.7407H24.0115V55.5888ZM26.4207 34.3523C26.4207 37.7987 28.33 38.175 32.1751 35.4859C36.0214 32.7991 35.4805 31.347 30.6368 31.347C26.9423 31.347 26.4207 31.7196 26.4207 34.3523ZM36.2707 38.984C30.7163 40.4674 29.5876 41.7188 28.2734 47.8616C27.6361 50.8368 28.0493 52.6063 30.0236 55.3748C32.681 59.099 34.8529 60.0859 34.8529 57.5699C34.8529 56.7861 35.8467 55.0286 37.061 53.663C39.263 51.1891 43.2852 41.5962 43.2852 38.8205C43.2852 37.1328 43.196 37.1352 36.2707 38.984ZM45.0403 46.3674C43.2852 51.5208 43.1093 53.2903 44.2428 54.4215C45.0415 55.2185 45.6944 57.7261 45.6944 59.9945C45.6944 64.0721 45.7438 64.1106 50.1141 63.4025C55.3192 62.5598 55.7047 62.055 57.8031 53.3252L59.4076 46.6523L55.5432 43.207C49.7178 38.0127 47.6772 38.627 45.0403 46.3674ZM68.5819 61.3998V72.2188H48.0662C26.4351 72.2188 24.9306 72.6191 26.9362 77.8363C27.6181 79.6106 27.924 79.5397 29.543 77.2352C32.4461 73.0987 39.8123 73.6157 43.7032 78.2294C46.7279 81.8177 46.8086 81.8357 59.469 81.8357C69.3263 81.8357 72.1957 81.4715 72.1957 80.2189C72.1957 77.3674 76.4733 74.623 80.9171 74.623C84.2334 74.623 85.9367 75.4585 88.2736 78.2294C89.9456 80.2129 91.6513 81.8357 92.0633 81.8357C92.4753 81.8357 92.6463 79.5373 92.4415 76.7267C92.1091 72.1262 91.7344 71.5793 88.688 71.2307C84.4839 70.7498 85.0368 68.1533 89.4541 67.6315C91.2249 67.4224 92.674 66.7456 92.674 66.1289C92.674 65.511 88.1242 65.0061 82.5638 65.0061C71.1935 65.0061 70.9911 64.8463 70.9911 55.8917C70.9911 52.9706 70.449 50.5808 69.7865 50.5808C69.0722 50.5808 68.5819 54.9889 68.5819 61.3998ZM74.8374 55.6898L75.2072 60.7987L83.6395 61.157L92.0717 61.5164L86.7016 56.048C82.8155 52.093 80.3822 50.5808 77.8983 50.5808C74.6061 50.5808 74.4809 50.7876 74.8374 55.6898ZM38.4667 62.6019C38.4667 67.1435 38.9088 68.6125 40.2736 68.6125C41.6385 68.6125 42.0806 67.1435 42.0806 62.6019C42.0806 58.0603 41.6385 56.5914 40.2736 56.5914C38.9088 56.5914 38.4667 58.0603 38.4667 62.6019ZM58.6138 64.1322C58.1825 65.2562 55.3445 66.4643 51.4946 67.1639L45.0921 68.3264L53.8255 68.4694C62.8721 68.6173 63.6623 68.1737 60.9459 64.4664C59.5449 62.555 59.2378 62.5106 58.6138 64.1322ZM32.4437 66.2082C32.4437 67.5306 32.9858 68.6125 33.6483 68.6125C34.3108 68.6125 34.8529 67.5306 34.8529 66.2082C34.8529 64.8859 34.3108 63.804 33.6483 63.804C32.9858 63.804 32.4437 64.8859 32.4437 66.2082ZM32.6846 79.6719C30.6874 81.665 30.8729 86.0467 33.0303 87.833C37.5801 91.6017 44.6391 84.5573 40.8627 80.0169C39.0727 77.8639 34.6819 77.6788 32.6846 79.6719ZM77.2551 79.6719C75.3964 81.5268 75.3964 85.751 77.2551 87.6058C79.3944 89.7408 82.3795 89.3609 84.8489 86.6393C89.2843 81.7479 81.9338 75.0029 77.2551 79.6719ZM34.1061 82.3791C33.2664 84.5609 34.4855 86.6441 36.602 86.6441C38.4282 86.6441 40.0231 83.3768 39.0016 81.7275C37.9488 80.0265 34.8517 80.4401 34.1061 82.3791ZM78.2188 82.9669C78.2188 85.9974 80.2847 87.2236 82.4156 85.4577C84.6092 83.6413 83.4142 80.6336 80.4991 80.6336C79.0451 80.6336 78.2188 81.4787 78.2188 82.9669Z" fill="#38393E"/>
</svg>
