<svg width="133" height="133" viewBox="0 0 133 133" fill="none" xmlns="http://www.w3.org/2000/svg">
<path fill-rule="evenodd" clip-rule="evenodd" d="M49.5932 2.12468C38.5991 5.08246 29.3648 10.4145 20.4977 18.9236C-0.925122 39.4818 -6.07831 70.6549 7.51499 97.4637C9.45309 101.286 14.9947 108.356 19.83 113.179C46.3395 139.612 86.8853 139.606 113.11 113.166C139.601 86.4581 139.633 46.3891 113.187 19.8966C96.3217 3.00204 71.7955 -3.85204 49.5932 2.12468ZM37.5349 32.2449C36.3989 33.3801 35.9387 41.5888 35.9387 60.7314C35.9387 91.7515 35.9546 91.7994 46.6747 91.7994H53.2313V96.4521C53.2313 99.0111 53.609 101.105 54.0706 101.105C54.5309 101.105 57.8245 99.0111 61.3894 96.4521C67.6985 91.9217 68.2 91.7994 80.4086 91.7994C90.0339 91.7994 93.4325 91.3142 95.0381 89.711C98.1521 86.5977 98.1521 35.8514 95.0381 32.7381C93.2756 30.9767 88.7276 30.6497 66.0398 30.6497C46.8849 30.6497 38.6709 31.1096 37.5349 32.2449ZM70.1913 43.8009C67.1531 46.8796 67.2489 48.8391 70.5239 50.5898C73.9145 52.403 73.9305 54.2721 70.5584 54.8171C68.5126 55.1481 68.2412 55.6838 69.3293 57.2365C70.3802 58.736 70.8936 58.8184 71.4005 57.5688C71.7716 56.6556 72.9235 55.9072 73.9598 55.9072C76.8051 55.9072 76.2198 50.8836 73.1843 49.2605C71.721 48.4775 70.5239 47.1907 70.5239 46.3997C70.5239 45.6088 71.721 45.2751 73.1843 45.658C74.6475 46.0395 75.8447 45.8108 75.8447 45.1475C75.8447 44.4855 75.2102 43.9431 74.436 43.9431C73.6618 43.9431 73.3971 43.3449 73.8494 42.6138C75.1902 40.4469 72.7067 41.2525 70.1913 43.8009ZM51.3065 46.4888C50.7544 47.3794 50.6693 48.4722 51.1149 48.9175C51.5605 49.3628 50.6241 51.1122 49.0332 52.8045C44.7486 57.3628 47.1895 61.9743 54.5455 63.2159C61.4014 64.3737 61.6328 68.3006 54.8834 68.952C49.7422 69.4492 49.2793 71.4339 53.8964 73.1886C55.7254 73.8839 57.2219 75.0656 57.2219 75.8141C57.2219 76.5638 57.8205 77.1766 58.5521 77.1766C59.2837 77.1766 59.8823 76.0733 59.8823 74.724C59.8823 73.3747 61.0794 71.188 62.5427 69.8653C64.0059 68.5426 65.2031 66.6549 65.2031 65.6712C65.2031 62.4808 60.0193 58.5659 55.7946 58.5659C52.6194 58.5659 51.804 58.0461 52.1472 56.2395C52.4132 54.8371 54.036 53.7457 56.2362 53.4931C60.3518 53.0172 61.0595 50.9474 57.5544 49.634C56.2734 49.1528 54.5695 47.8846 53.7673 46.8145C52.6566 45.3363 52.0673 45.2578 51.3065 46.4888ZM81.1655 61.2844C80.068 61.8772 78.1233 62.6855 76.8423 63.0803C73.989 63.9617 73.8068 68.3033 76.5098 71.0045C80.507 74.9992 78.2922 77.2497 73.0965 74.4714C70.4773 73.0703 69.2775 74.9207 71.7955 76.4761C72.4952 76.9081 72.7307 78.1404 72.3183 79.2132C71.9073 80.286 72.2318 81.1647 73.0419 81.1647C73.852 81.1647 74.5145 80.5665 74.5145 79.8353C74.5145 79.1042 75.6385 78.506 77.0126 78.506C80.8555 78.506 83.3816 74.8171 81.4129 72.0799C77.3371 66.4183 77.7734 64.0162 82.4251 66.5034C85.0496 67.9085 85.1813 67.7569 84.3473 64.2847C83.2499 59.7171 83.5465 59.9989 81.1655 61.2844Z" fill="#38393E"/>
</svg>
