<svg width="100" height="100" viewBox="0 0 100 100" fill="none" xmlns="http://www.w3.org/2000/svg">
<path fill-rule="evenodd" clip-rule="evenodd" d="M37.4962 0.99385C30.3972 2.65885 20.8232 8.13285 15.0572 13.8249C-14.2178 42.7188 1.52124 92.0438 42.2122 98.9298C68.9532 103.455 95.2712 83.8459 99.2172 56.4559C102.749 31.9419 87.3932 8.64085 62.9792 1.46985C57.0622 -0.268151 43.9232 -0.51315 37.4962 0.99385ZM43.2812 21.3148C41.5602 22.0648 39.8462 23.1719 39.4722 23.7759C39.0992 24.3808 37.6652 24.8748 36.2862 24.8748C34.9082 24.8748 32.9602 25.3128 31.9592 25.8488C29.3532 27.2438 25.6852 33.8609 26.4602 35.7699C27.0002 37.0999 27.2602 36.9899 27.9792 35.1249C28.4562 33.8879 29.3112 32.8749 29.8792 32.8749C30.4462 32.8749 30.9112 31.9908 30.9112 30.9098C30.9112 28.5928 34.3312 26.4898 36.9762 27.1818C38.0002 27.4498 39.4172 26.9699 40.1242 26.1168C41.9822 23.8759 47.2922 21.8748 51.3792 21.8748C53.3222 21.8748 54.9112 21.4248 54.9112 20.8748C54.9112 19.4208 46.9402 19.7228 43.2812 21.3148ZM61.7272 28.6248C61.2582 32.7029 55.9332 35.1789 49.4112 34.3519C39.2022 33.0579 30.9112 34.2198 30.9112 36.9459C30.9112 38.0588 38.8432 37.0469 40.5392 35.7169C41.2022 35.1968 42.7772 35.2539 44.3542 35.8539C48.7912 37.5399 56.0782 37.0709 59.6962 34.8649C63.0392 32.8269 65.0312 29.3818 64.1732 27.1248C63.3512 24.9669 62.0572 25.7608 61.7272 28.6248ZM25.6052 42.6249C25.3712 43.0378 24.5892 51.1739 23.8662 60.7049C22.4542 79.3409 22.5472 79.8438 27.4112 79.8438C32.1742 79.8438 32.2852 79.2738 30.9232 61.7288C30.2252 52.7338 29.2462 44.5869 28.7472 43.6249C27.8032 41.8018 26.3352 41.3349 25.6052 42.6249ZM60.8112 47.6249C60.7262 50.8269 60.6112 51.0098 60.0222 48.8749C59.5442 47.1439 58.5202 46.2799 56.6942 46.0659C54.4672 45.8039 54.0052 46.1859 53.7332 48.5079C53.3662 51.6429 51.6842 52.2678 40.6612 53.3629C35.8112 53.8448 33.9112 54.4339 33.9112 55.4549C33.9112 57.1809 32.0212 57.2399 52.4112 54.8749C76.6402 52.0639 73.9112 50.9878 73.9112 63.3528V73.8318L54.9092 74.1028C28.7862 74.4768 29.1422 76.2898 55.4082 76.6469C73.3282 76.8909 75.5362 76.7409 76.6582 75.2058C78.2042 73.0919 78.3762 54.6119 76.8762 51.8088C76.0902 50.3398 74.7672 49.8749 71.3762 49.8749C67.0822 49.8749 66.9112 49.7598 66.9112 46.8749C66.9112 44.2079 66.5782 43.8749 63.9112 43.8749C61.1292 43.8749 60.9042 44.1469 60.8112 47.6249ZM49.9112 63.3749C49.9112 64.2078 50.8002 64.8748 51.9112 64.8748C53.0222 64.8748 53.9112 64.2078 53.9112 63.3749C53.9112 62.5419 53.0222 61.8749 51.9112 61.8749C50.8002 61.8749 49.9112 62.5419 49.9112 63.3749ZM55.9112 63.3749C55.9112 64.2078 56.8002 64.8748 57.9112 64.8748C59.0222 64.8748 59.9112 64.2078 59.9112 63.3749C59.9112 62.5419 59.0222 61.8749 57.9112 61.8749C56.8002 61.8749 55.9112 62.5419 55.9112 63.3749ZM62.9112 63.3749C62.9112 64.2078 63.8002 64.8748 64.9112 64.8748C66.0222 64.8748 66.9112 64.2078 66.9112 63.3749C66.9112 62.5419 66.0222 61.8749 64.9112 61.8749C63.8002 61.8749 62.9112 62.5419 62.9112 63.3749ZM49.9112 68.3748C49.9112 69.2078 50.8002 69.8748 51.9112 69.8748C53.0222 69.8748 53.9112 69.2078 53.9112 68.3748C53.9112 67.5418 53.0222 66.8748 51.9112 66.8748C50.8002 66.8748 49.9112 67.5418 49.9112 68.3748ZM55.9112 68.3748C55.9112 69.2078 56.8002 69.8748 57.9112 69.8748C59.0222 69.8748 59.9112 69.2078 59.9112 68.3748C59.9112 67.5418 59.0222 66.8748 57.9112 66.8748C56.8002 66.8748 55.9112 67.5418 55.9112 68.3748ZM62.9112 68.3748C62.9112 69.2078 63.8002 69.8748 64.9112 69.8748C66.0222 69.8748 66.9112 69.2078 66.9112 68.3748C66.9112 67.5418 66.0222 66.8748 64.9112 66.8748C63.8002 66.8748 62.9112 67.5418 62.9112 68.3748Z" fill="#33363B"/>
</svg>
