<svg width="133" height="133" viewBox="0 0 133 133" fill="none" xmlns="http://www.w3.org/2000/svg">
<path fill-rule="evenodd" clip-rule="evenodd" d="M50.0096 1.32739C40.5415 3.55117 27.7724 10.8623 20.0822 18.4645C-18.9625 57.0555 2.02892 122.934 56.2994 132.131C91.9645 138.175 127.065 111.985 132.328 75.4027C137.039 42.6617 116.558 11.5408 83.9968 1.96314C76.1052 -0.358143 58.5814 -0.685366 50.0096 1.32739ZM57.7251 28.4682C55.4298 29.4699 53.1438 30.9484 52.645 31.7552C52.1475 32.5632 50.235 33.223 48.3958 33.223C46.5579 33.223 43.9598 33.808 42.6247 34.5239C39.1491 36.387 34.257 45.2247 35.2906 47.7744C36.0108 49.5508 36.3576 49.4038 37.3165 46.9129C37.9527 45.2608 39.093 43.9078 39.8506 43.9078C40.6068 43.9078 41.227 42.7271 41.227 41.2834C41.227 38.1888 45.7883 35.38 49.316 36.3042C50.6818 36.6622 52.5716 36.0211 53.5146 34.8818C55.9926 31.8887 63.0747 29.2162 68.5256 29.2162C71.117 29.2162 73.2363 28.6151 73.2363 27.8806C73.2363 25.9386 62.6052 26.3419 57.7251 28.4682ZM82.327 38.2315C81.7015 43.6781 74.5994 46.9851 65.9009 45.8805C52.2849 44.1522 41.227 45.7042 41.227 49.3451C41.227 50.8316 51.8061 49.48 54.0681 47.7036C54.9523 47.0091 57.0529 47.0852 59.1562 47.8866C65.074 50.1384 74.7928 49.512 79.6182 46.5657C84.0768 43.8437 86.7336 39.2426 85.5893 36.2281C84.4929 33.3459 82.7671 34.4063 82.327 38.2315ZM34.1503 56.93C33.8382 57.4816 32.7952 68.3481 31.8309 81.0777C29.9477 105.968 30.0718 106.64 36.559 106.64C42.9115 106.64 43.0595 105.879 41.243 82.4454C40.3121 70.4316 39.0064 59.5504 38.3408 58.2656C37.0818 55.8308 35.1239 55.207 34.1503 56.93ZM81.1053 63.608C80.9919 67.8846 80.8385 68.129 80.053 65.2775C79.4155 62.9656 78.0497 61.8116 75.6143 61.5258C72.6441 61.1759 72.028 61.6861 71.6652 64.7873C71.1757 68.9745 68.9324 69.8092 54.2308 71.2717C47.7622 71.9155 45.2282 72.7021 45.2282 74.0658C45.2282 76.371 42.7074 76.4498 69.902 73.2911C102.217 69.5368 98.577 68.0996 98.577 84.6144V98.6102L73.2337 98.9721C38.3928 99.4717 38.8676 101.893 73.8992 102.37C97.7995 102.696 100.744 102.495 102.241 100.445C104.303 97.6219 104.532 72.9399 102.532 69.1962C101.483 67.2342 99.7187 66.6131 95.196 66.6131C89.469 66.6131 89.241 66.4595 89.241 62.6063C89.241 59.0442 88.7969 58.5995 85.2398 58.5995C81.5294 58.5995 81.2293 58.9628 81.1053 63.608ZM66.5677 84.6438C66.5677 85.7563 67.7534 86.6472 69.2352 86.6472C70.7169 86.6472 71.9026 85.7563 71.9026 84.6438C71.9026 83.5312 70.7169 82.6404 69.2352 82.6404C67.7534 82.6404 66.5677 83.5312 66.5677 84.6438ZM74.57 84.6438C74.57 85.7563 75.7557 86.6472 77.2375 86.6472C78.7193 86.6472 79.9049 85.7563 79.9049 84.6438C79.9049 83.5312 78.7193 82.6404 77.2375 82.6404C75.7557 82.6404 74.57 83.5312 74.57 84.6438ZM83.9061 84.6438C83.9061 85.7563 85.0918 86.6472 86.5735 86.6472C88.0553 86.6472 89.241 85.7563 89.241 84.6438C89.241 83.5312 88.0553 82.6404 86.5735 82.6404C85.0918 82.6404 83.9061 83.5312 83.9061 84.6438ZM66.5677 91.3218C66.5677 92.4344 67.7534 93.3252 69.2352 93.3252C70.7169 93.3252 71.9026 92.4344 71.9026 91.3218C71.9026 90.2092 70.7169 89.3184 69.2352 89.3184C67.7534 89.3184 66.5677 90.2092 66.5677 91.3218ZM74.57 91.3218C74.57 92.4344 75.7557 93.3252 77.2375 93.3252C78.7193 93.3252 79.9049 92.4344 79.9049 91.3218C79.9049 90.2092 78.7193 89.3184 77.2375 89.3184C75.7557 89.3184 74.57 90.2092 74.57 91.3218ZM83.9061 91.3218C83.9061 92.4344 85.0918 93.3252 86.5735 93.3252C88.0553 93.3252 89.241 92.4344 89.241 91.3218C89.241 90.2092 88.0553 89.3184 86.5735 89.3184C85.0918 89.3184 83.9061 90.2092 83.9061 91.3218Z" fill="#38393E"/>
</svg>
