<svg width="133" height="133" viewBox="0 0 133 133" fill="none" xmlns="http://www.w3.org/2000/svg">
<path fill-rule="evenodd" clip-rule="evenodd" d="M56.339 0.78838C23.8433 6.44481 0 34.3706 0 66.7742C0 88.3602 12.6173 111.441 30.6838 122.906C52.3809 136.675 82.3351 136.325 103.65 122.056C136.72 99.9187 142.888 53.4166 116.812 22.8482C102.821 6.44748 77.3039 -2.862 56.339 0.78838ZM55.4337 46.9767C54.9451 47.4652 54.5457 53.1711 54.5457 59.6563C54.5457 66.6261 54.0012 71.4457 53.2143 71.4457C52.4448 71.4457 51.883 67.2187 51.883 61.4355V51.4253H43.2917H34.7005L33.2214 56.4304C32.4079 59.1838 31.3987 65.19 30.9793 69.7773C30.1246 79.1308 31.1644 80.0825 36.4512 74.7824C38.4562 72.7724 41.3 71.4457 43.6019 71.4457C45.9584 71.4457 48.6238 72.7256 50.5516 74.7824C52.9747 77.3677 55.0064 78.1191 59.5782 78.1191C63.9291 78.1191 66.5159 77.2436 69.4329 74.7824C74.4987 70.5087 79.068 70.5488 83.4109 74.9025C86.1162 77.6146 87.108 77.975 88.0173 76.5709C88.6551 75.5872 89.0225 73.5812 88.8361 72.113C88.5752 70.0683 87.3264 69.3462 83.5027 69.0299C79.2477 68.6762 78.5101 68.1463 78.5101 65.4396C78.5101 62.7528 79.2783 62.1829 83.5027 61.7398L88.4953 61.2166L83.5027 60.9924C79.526 60.8135 78.5101 60.2409 78.5101 58.1788C78.5101 56.1701 79.6285 55.4734 83.5027 55.0663L88.4953 54.5431L83.5027 54.3189C79.4727 54.1374 78.5101 53.5808 78.5101 51.4253C78.5101 49.3605 79.3981 48.7559 82.4257 48.7559C84.5798 48.7559 86.7113 48.1553 87.164 47.4212C88.0892 45.9197 56.9235 45.4832 55.4337 46.9767ZM79.8415 51.4253C79.8415 52.2101 84.5012 52.76 91.158 52.76C97.8148 52.76 102.475 52.2101 102.475 51.4253C102.475 50.6405 97.8148 50.0906 91.158 50.0906C84.5012 50.0906 79.8415 50.6405 79.8415 51.4253ZM36.7455 58.4324C35.1372 64.4505 35.5792 64.939 42.2306 64.5119C48.295 64.1222 48.5719 63.926 48.9713 59.7671C49.3854 55.4614 49.3454 55.4294 43.4688 55.4294C38.4549 55.4294 37.4258 55.8885 36.7455 58.4324ZM79.8415 58.0987C79.8415 58.8609 83.8356 59.4334 89.161 59.4334C94.4864 59.4334 98.4805 58.8609 98.4805 58.0987C98.4805 57.3366 94.4864 56.7641 89.161 56.7641C83.8356 56.7641 79.8415 57.3366 79.8415 58.0987ZM80.5072 66.1069C80.9598 66.841 83.99 67.4416 87.2425 67.4416C90.495 67.4416 93.1551 66.841 93.1551 66.1069C93.1551 65.3728 90.1236 64.7722 86.4197 64.7722C82.2686 64.7722 79.9999 65.2847 80.5072 66.1069ZM38.1101 77.8909C36.8986 79.2336 35.9067 81.6013 35.9067 83.1536C35.9067 86.1914 40.4679 90.1314 43.9854 90.1314C46.917 90.1314 50.5516 85.8777 50.5516 82.4475C50.5516 76.1411 42.3877 73.1514 38.1101 77.8909ZM70.7883 77.0514C67.9458 79.9009 68.8937 85.871 72.5736 88.2882C79.2823 92.6953 86.3332 85.476 81.9184 78.7211C79.5832 75.1481 73.5841 74.2485 70.7883 77.0514ZM42.1082 80.3547C41.6262 80.8379 41.2321 82.0338 41.2321 83.0135C41.2321 85.0008 44.6644 85.4493 45.7987 83.6087C46.7053 82.1392 43.3117 79.1482 42.1082 80.3547ZM74.0155 81.5066C73.5628 82.6878 74.0914 83.8904 75.2616 84.3401C77.8671 85.3425 79.0547 84.1373 78.0508 81.5133C77.0403 78.8732 75.0246 78.8692 74.0155 81.5066Z" fill="#38393E"/>
</svg>
