<svg width="120" height="120" viewBox="0 0 119 120" fill="none" xmlns="http://www.w3.org/2000/svg">
<path fill-rule="evenodd" clip-rule="evenodd" d="M45.373 1.731C35.3093 4.18502 25.982 9.50769 18.0641 17.3156C-12.0135 46.9815 -3.32817 96.3012 35.1837 114.531C65.6499 128.951 102.667 113.788 115.621 81.5818C117.494 76.9238 118.373 71.6311 118.788 62.506C119.297 51.2911 119.031 48.9236 116.412 41.3524C105.989 11.2214 75.7089 -5.66594 45.373 1.731ZM56.3836 27.5524C55.9389 28.2758 53.4917 28.8671 50.944 28.8671C47.3002 28.8671 46.1453 29.4007 45.5224 31.3728C45.0873 32.7513 43.1685 34.4265 41.2581 35.0959C38.8001 35.9564 37.784 37.1101 37.784 39.0378C37.784 40.5364 36.6411 43.2223 35.2447 45.007C33.2602 47.5439 32.9613 48.825 33.8771 50.8777C34.6398 52.5866 34.6422 54.6825 33.8842 56.8793C32.9219 59.6662 33.161 60.7286 35.2507 62.9663C36.6446 64.4565 37.784 66.8505 37.784 68.2866C37.784 70.1337 39.007 71.4112 41.9682 72.655C44.2696 73.6213 46.1525 75.1932 46.1525 76.1474C46.1525 78.2914 49.3409 79.6302 52.2436 78.7048C53.4367 78.3238 55.7954 78.9235 57.4858 80.0376C60.3766 81.9424 60.697 81.9376 62.8716 79.9583C64.409 78.5606 66.1736 78.1051 68.1342 78.599C70.9663 79.3141 74.8445 76.9838 74.8445 74.5659C74.8445 74.0167 76.4585 73.0024 78.431 72.3113C81.3708 71.2814 82.0175 70.3861 82.0175 67.3492C82.0175 65.2064 82.7552 63.3593 83.7654 62.9687C86.2161 62.0229 87.1678 58.2433 85.665 55.4204C84.7552 53.7114 84.7947 52.1624 85.8085 49.927C87.0375 47.2146 86.894 46.5861 84.6931 45.0358C83.2107 43.9927 82.0128 41.6492 81.7928 39.367C81.5059 36.3758 80.7922 35.3868 78.7 35.0887C77.2045 34.876 75.1613 33.4423 74.1583 31.9052C72.9831 30.1013 70.7655 28.8863 67.9118 28.4837C65.4778 28.14 62.0706 27.4935 60.3395 27.0476C58.4877 26.5705 56.8594 26.7784 56.3836 27.5524ZM50.9345 38.1833C42.3412 42.4977 39.0058 55.9479 44.6449 63.5408C48.9368 69.3201 52.974 71.4449 59.6318 71.4304C70.5419 71.4076 77.2355 64.3628 77.2355 52.9026C77.2355 47.0368 76.8566 46.1967 72.0136 41.3271C67.2722 36.5621 66.2525 36.0778 60.9552 36.0802C57.7453 36.0802 53.2358 37.0272 50.9345 38.1833ZM57.9329 45.3976C55.7057 49.9114 54.3704 51.2262 51.5322 51.7069C48.2195 52.2681 47.9182 52.738 47.5871 57.8684L47.2296 63.4218L57.6424 63.2692L68.0553 63.1178L69.4445 58.9704C70.2096 56.6882 70.5981 53.5792 70.3088 52.0602C69.8832 49.8177 69.0117 49.2973 65.6846 49.2973C61.6737 49.2973 61.602 49.2096 62.3444 45.2293C63.5159 38.9512 61.0676 39.045 57.9329 45.3976ZM37.9513 81.7032C35.4312 86.2111 35.3906 86.6666 37.2006 90.1866C39.8857 95.4059 45.5165 94.8951 49.4018 89.0785C52.7684 84.0407 52.8138 82.9471 49.6601 82.9471C46.1824 82.9471 42.566 80.7815 42.566 78.6988C42.566 75.5874 40.6866 76.8108 37.9513 81.7032ZM75.685 79.9799C74.2336 81.9856 72.3854 82.9471 69.9824 82.9471H66.427L68.8575 87.7349C74.6987 99.2444 86.6573 93.4206 81.3732 81.6407C80.2123 79.0545 78.9415 76.955 78.5482 76.9754C78.1549 76.9971 76.8661 78.3491 75.685 79.9799Z" fill="#38393E"/>
</svg>
